<?xml version="1.0" standalone="no"?>
<!DOCTYPE svg PUBLIC "-//W3C//DTD SVG 20010904//EN"
 "http://www.w3.org/TR/2001/REC-SVG-20010904/DTD/svg10.dtd">
<svg version="1.0" xmlns="http://www.w3.org/2000/svg"
 width="64.000000pt" height="64.000000pt" viewBox="0 0 64.000000 64.000000"
 preserveAspectRatio="xMidYMid meet">

<g transform="translate(0.000000,64.000000) scale(0.100000,-0.100000)"
fill="#000000" stroke="none">
<path d="M0 320 l0 -320 320 0 320 0 0 320 0 320 -320 0 -320 0 0 -320z m395
0 l0 -285 -75 0 -75 0 -3 275 c-1 151 0 281 3 288 3 9 25 12 77 10 l73 -3 0
-285z m213 -68 l2 -222 -74 0 c-58 0 -75 3 -80 16 -3 9 -6 104 -6 213 0 143 3
200 12 209 8 8 36 12 78 10 l65 -3 3 -223z m-430 56 c13 -13 18 -232 6 -262
-5 -13 -22 -16 -80 -16 l-74 0 0 138 c0 76 3 142 7 145 11 12 128 8 141 -5z"/>
</g>
</svg>
